<svg width="155" height="46" fill="none" xmlns="http://www.w3.org/2000/svg"><rect x=".5" y=".5" width="154" height="45" rx="2.5" stroke="#5B5B5B"/><path d="M32.15 12.65H13.78a2.3 2.3 0 0 0-2.3 2.3v11.5a2.3 2.3 0 0 0 2.3 2.3h8.9v4.02h-5.74a.86.86 0 0 0 0 1.73h13.2a.86.86 0 0 0 .6-1.47.86.86 0 0 0-.6-.26H24.4v-4.02h7.75a2.3 2.3 0 0 0 2.3-2.3v-11.5a2.3 2.3 0 0 0-2.3-2.3Z" fill="#428D26"/><path d="M16.6 22.43a.86.86 0 0 0 1.25 1.14l-1.26-1.14Zm4.8-4.03.63-.57a.86.86 0 0 0-1.26 0l.63.57Zm3.12 3.45-.63.57a.86.86 0 0 0 1.27 0l-.64-.57Zm4.83-4.03a.86.86 0 0 0-1.28-1.14l1.27 1.14Zm-11.48 5.75 4.16-4.6-1.26-1.14-4.18 4.6 1.26 1.14h.02Zm2.89-4.6 3.13 3.46 1.27-1.16-3.13-3.45-1.26 1.16h-.01Zm4.4 3.46 4.18-4.6-1.27-1.15-4.18 4.6 1.27 1.14Z" fill="#101010"/><path d="M47.65 15.3c1.74 0 3.05-1.07 3.3-2.67v-.06h-1.22v.06c-.31 1.02-1.04 1.59-2.08 1.59-1.47 0-2.42-1.2-2.42-3.06 0-1.88.95-3.04 2.42-3.04 1.06 0 1.8.57 2.05 1.5l.03.12h1.23v-.05C50.71 8.09 49.4 7 47.66 7 45.42 7 44 8.6 44 11.15c0 2.56 1.42 4.17 3.66 4.17l-.01-.02Zm5.98-2.74 2.11 2.61h1.47l-2.53-3.1 2.43-2.76h-1.4l-2.08 2.41h-.2V9.31h-1.19v5.86h1.19v-2.61h.2Zm6.12 2.71c.76 0 1.42-.4 1.76-1.01h.02v.91h1.19v-4.05c0-1.16-.89-1.93-2.3-1.93-1.41 0-2.27.78-2.36 1.78v.06h1.12v-.05c.1-.47.52-.78 1.2-.78.74 0 1.15.38 1.15 1.02v.45l-1.57.09c-1.37.09-2.14.7-2.14 1.74 0 1.06.77 1.77 1.93 1.77Zm-.73-1.8c0-.5.4-.82 1.1-.86l1.41-.1v.47c0 .76-.62 1.33-1.45 1.33-.64 0-1.06-.32-1.06-.84Zm9.81 1.7V9.31h-1.17v2.41c-.25.25-.7.42-1.18.42-.81 0-1.25-.38-1.25-1.18V9.3h-1.17v1.79c0 1.27.75 2.08 2.1 2.08.58 0 1.13-.2 1.46-.53h.04v2.52h1.17Zm3.2.1c.76 0 1.42-.4 1.76-1.01h.02v.91H75v-4.05c0-1.16-.89-1.93-2.3-1.93-1.42 0-2.28.78-2.36 1.78v.06h1.12v-.05c.1-.47.52-.78 1.2-.78.74 0 1.15.38 1.15 1.02v.45l-1.57.09c-1.37.09-2.14.7-2.14 1.74 0 1.06.77 1.77 1.93 1.77Zm-.73-1.8c0-.5.4-.82 1.1-.86l1.41-.1v.47c0 .76-.62 1.33-1.45 1.33-.64 0-1.06-.32-1.06-.84Zm9.46-4.16h-4.78v.95h1.8v4.91h1.18v-4.9h1.8V9.3Zm1.08 5.86h2.28c1.34 0 2.2-.79 2.2-2.03 0-1.24-.86-2.03-2.2-2.03h-1.1V9.32h-1.18v5.85Zm2.17-3.1c.67 0 1.1.42 1.1 1.07 0 .65-.43 1.08-1.1 1.08h-.98v-2.16H84v.01ZM44.65 36.75h4.8c3.94 0 6.26-2.49 6.26-6.74V30c0-4.24-2.33-6.66-6.26-6.66h-4.8v13.4ZM47 34.7v-9.35h2.2c2.62 0 4.11 1.65 4.11 4.63v.03c0 3.04-1.45 4.69-4.1 4.69H47Zm14.23 2.22c2.52 0 3.95-1.52 4.24-3.05l.04-.08h-2.12l-.03.06c-.22.66-.95 1.27-2.09 1.27-1.47 0-2.4-1.02-2.44-2.76h6.76v-.73c0-2.97-1.7-4.95-4.48-4.95-2.75 0-4.53 2.03-4.53 5.14v.01c0 3.14 1.74 5.09 4.65 5.09Zm-.08-8.44c1.2 0 2.08.79 2.24 2.35h-4.53c.18-1.52 1.08-2.35 2.29-2.35Zm9.32 8.44c2.37 0 4.05-1.24 4.05-3.1 0-1.44-.77-2.24-2.76-2.7l-1.62-.35c-1-.24-1.37-.61-1.37-1.18 0-.73.62-1.2 1.62-1.2 1.07 0 1.68.57 1.8 1.36v.08h2.1v-.1c-.08-1.7-1.49-3.05-3.89-3.05-2.34 0-3.89 1.2-3.89 3.02 0 1.46.94 2.39 2.8 2.8l1.6.37c1 .23 1.33.56 1.33 1.14v.03c0 .72-.66 1.18-1.77 1.18-1.14 0-1.78-.5-1.94-1.36l-.02-.07h-2.24v.07c.2 1.84 1.66 3.06 4.2 3.06Zm5.23-.2h2.27v-3.42l.77-.8 3.05 4.23h2.62l-3.99-5.6 3.84-4.25h-2.62l-3.62 4.09h-.05v-7.65H75.7v13.4Zm12.8.2c.47 0 .88-.04 1.13-.08v-1.73c-.15 0-.33.03-.55.03-.82 0-1.25-.3-1.25-1.27v-5.2h1.8V26.9h-1.8v-2.5h-2.3v2.5h-1.37v1.78h1.37v5.4c0 2.03.96 2.86 2.99 2.86h-.01Zm6.42 0c2.83 0 4.67-1.92 4.67-5.11v-.03c0-3.17-1.87-5.1-4.68-5.1-2.82 0-4.67 1.94-4.67 5.1v.03c0 3.18 1.83 5.11 4.68 5.11Zm0-1.87c-1.44 0-2.37-1.18-2.37-3.24v-.03c0-2.03.94-3.23 2.36-3.23 1.44 0 2.36 1.18 2.36 3.23v.03c0 2.05-.92 3.24-2.35 3.24Zm5.75 4.93h2.28v-4.9h.04a3.27 3.27 0 0 0 3.04 1.85c2.41 0 3.97-1.94 3.97-5.1v-.01c0-3.17-1.56-5.13-4.01-5.13-1.37 0-2.44.73-2.99 1.9h-.05v-1.7h-2.28V40v-.01Zm4.65-5c-1.4 0-2.4-1.24-2.4-3.17 0-1.94 1-3.18 2.4-3.18 1.46 0 2.36 1.21 2.36 3.18 0 1.95-.9 3.17-2.36 3.17Z" fill="#fff"/></svg>