<svg width="18" height="17" fill="none" xmlns="http://www.w3.org/2000/svg"><g clip-path="url(#a)" fill-rule="evenodd" clip-rule="evenodd" fill="#5B5B5B"><path d="M8.617 0C5.132 0 2.74 0 1.507 1.232.275 2.464.275 4.998.275 8.342c3.731-.105 5.456-.211 6.829-1.549C8.406 5.456 8.51 3.731 8.617 0ZM1.507 15.664C.275 14.432.275 11.897.275 8.554c3.731.105 5.456.21 6.829 1.548 1.337 1.373 1.443 3.063 1.548 6.829-3.52-.035-5.913-.035-7.145-1.267ZM8.828 16.896c.106-3.731.212-5.456 1.55-6.829 1.372-1.338 3.061-1.443 6.828-1.549 0 3.38 0 5.878-1.232 7.146-1.267 1.232-3.661 1.232-7.146 1.232ZM8.828 0c.106 3.731.212 5.456 1.55 6.829 1.372 1.337 3.061 1.443 6.828 1.548 0-3.379 0-5.878-1.232-7.145C14.707 0 12.313 0 8.828 0Z"/></g><defs><clipPath id="a"><path fill="#fff" transform="translate(.275)" d="M0 0h16.896v16.896H0z"/></clipPath></defs></svg>