<svg width="21" height="17" viewBox="0 0 21 17" fill="none" xmlns="http://www.w3.org/2000/svg">
<path d="M15.6128 16.7382C15.4524 16.6518 14.336 15.8585 13.132 14.9754C11.9279 14.0922 10.8885 13.3696 10.8223 13.3696C10.756 13.3696 10.1329 13.9086 9.43751 14.5673C8.53805 15.4193 8.109 15.779 7.9507 15.8136C7.82832 15.8403 7.70256 15.8355 7.67123 15.8028C7.63991 15.7701 7.6879 14.7098 7.77789 13.4465C7.93529 11.2369 7.94771 11.1438 8.10493 10.9944C8.19482 10.909 10.0999 9.19804 12.3385 7.19225C14.577 5.18646 16.482 3.46581 16.5716 3.36859C16.7201 3.20762 16.7248 3.18197 16.624 3.08172C16.5336 2.99177 16.4751 2.98598 16.3045 3.05008C16.1896 3.09322 13.683 4.63949 10.7343 6.48624C7.78553 8.33298 5.33435 9.84395 5.28718 9.84395C5.08277 9.84395 0.46211 8.36478 0.303571 8.24859C0.0684226 8.07626 -0.0477458 7.83328 0.0183926 7.65213C0.132554 7.33944 0.640217 7.07571 2.48239 6.37208C3.5033 5.98214 5.807 5.09966 7.60171 4.41101C19.0245 0.0279718 19.0995 0 19.429 0C19.8259 0 20.1102 0.24411 20.2304 0.688156C20.3293 1.05341 20.3846 0.758231 19.005 7.22588C18.7511 8.41623 18.2267 10.8792 17.8397 12.6992C17.4527 14.5192 17.0873 16.1294 17.0277 16.2775C16.7872 16.8756 16.2141 17.0622 15.6128 16.7382V16.7382Z" fill="#5B5B5B"/>
</svg>
