<svg width="192" height="33" fill="none" xmlns="http://www.w3.org/2000/svg"><path d="M187.43 19.72h4.54c-.1 1.48-.5 2.8-1.23 3.96a7.32 7.32 0 0 1-3.02 2.7c-1.29.65-2.84.97-4.65.97a9.52 9.52 0 0 1-3.8-.73 8.1 8.1 0 0 1-2.9-2.12 9.46 9.46 0 0 1-1.8-3.34c-.41-1.3-.62-2.77-.62-4.39v-1.53c0-1.62.21-3.08.64-4.39a9.7 9.7 0 0 1 1.85-3.35 8.25 8.25 0 0 1 2.9-2.13 9.23 9.23 0 0 1 3.76-.74c1.85 0 3.4.33 4.66 1a7.3 7.3 0 0 1 2.97 2.76A9.36 9.36 0 0 1 192 12.4h-4.55a5.88 5.88 0 0 0-.53-2.26c-.3-.63-.77-1.1-1.39-1.41a5.18 5.18 0 0 0-2.43-.49 4.4 4.4 0 0 0-1.98.43 3.7 3.7 0 0 0-1.43 1.29c-.39.57-.68 1.3-.87 2.18-.18.87-.27 1.9-.27 3.07v1.56c0 1.15.09 2.15.26 3.02.17.86.43 1.6.79 2.19.36.59.83 1.03 1.4 1.33.57.3 1.26.45 2.07.45.96 0 1.74-.16 2.36-.46.61-.3 1.08-.75 1.4-1.35.34-.6.54-1.34.6-2.23ZM173 23.5v3.55h-11.12V23.5h11.13Zm-9.65-18.55v22.1h-4.55V4.95h4.55ZM147.37 19.17h-5.63v-3.55h5.63c.87 0 1.58-.14 2.12-.43.55-.29.95-.7 1.2-1.21a4.46 4.46 0 0 0 0-3.58 3.07 3.07 0 0 0-1.2-1.37 3.94 3.94 0 0 0-2.12-.52h-4.06v18.54h-4.55V4.95h8.6c1.74 0 3.22.31 4.46.94a6.72 6.72 0 0 1 3.84 6.31 6.8 6.8 0 0 1-.99 3.7 6.41 6.41 0 0 1-2.85 2.42 10.6 10.6 0 0 1-4.45.85ZM129.26 27.35c-1.28 0-2.42-.2-3.43-.6a7.54 7.54 0 0 1-2.58-1.72 7.63 7.63 0 0 1-1.61-2.53c-.38-.98-.57-2-.57-3.1v-.6c0-1.25.18-2.4.54-3.42a8.03 8.03 0 0 1 1.51-2.7 6.66 6.66 0 0 1 2.43-1.74 7.97 7.97 0 0 1 3.22-.62c1.16 0 2.2.2 3.1.58.9.38 1.65.93 2.26 1.64.62.7 1.08 1.56 1.4 2.55.31.98.47 2.07.47 3.28v1.82h-13.06v-2.92h8.76v-.33c0-.6-.11-1.15-.33-1.63a2.58 2.58 0 0 0-.97-1.15 3 3 0 0 0-1.67-.42 2.8 2.8 0 0 0-1.5.38c-.4.25-.75.6-1 1.06-.26.45-.45.99-.59 1.6-.12.61-.18 1.28-.18 2.01v.6c0 .67.1 1.27.28 1.83.19.56.45 1.04.8 1.44.35.4.78.72 1.27.94.51.23 1.08.34 1.72.34.79 0 1.52-.15 2.2-.46a4.76 4.76 0 0 0 1.78-1.41l2.12 2.3c-.34.5-.81.98-1.4 1.43-.6.46-1.3.83-2.13 1.13-.83.28-1.78.42-2.84.42ZM114.99 14.2v12.85h-4.38V10.62h4.12l.26 3.59Zm4.95-3.68-.08 4.05-.78-.08c-.29-.03-.56-.04-.8-.04-.62 0-1.15.08-1.6.24-.45.15-.83.38-1.13.69-.3.3-.52.67-.67 1.1-.14.44-.22.93-.24 1.5l-.88-.28c0-1.06.1-2.04.31-2.93.22-.9.53-1.69.93-2.35.42-.67.92-1.19 1.52-1.55.6-.37 1.28-.55 2.05-.55a4.7 4.7 0 0 1 1.37.2ZM92.37 19v-.32c0-1.2.17-2.3.51-3.32a7.7 7.7 0 0 1 1.5-2.66 6.73 6.73 0 0 1 2.43-1.74 8.11 8.11 0 0 1 3.31-.64c1.25 0 2.36.21 3.33.64.97.41 1.78 1 2.44 1.74a7.56 7.56 0 0 1 1.52 2.66c.34 1.01.52 2.12.52 3.32V19c0 1.2-.18 2.3-.52 3.33a7.75 7.75 0 0 1-1.52 2.66 6.74 6.74 0 0 1-2.43 1.74c-.96.42-2.06.62-3.3.62a8.4 8.4 0 0 1-3.33-.62 6.88 6.88 0 0 1-3.95-4.4 10.36 10.36 0 0 1-.51-3.33Zm4.37-.32V19c0 .7.06 1.33.18 1.93.12.6.31 1.13.58 1.58a3 3 0 0 0 1.06 1.05c.44.25.97.38 1.6.38.6 0 1.12-.13 1.56-.38.43-.25.78-.6 1.05-1.05.26-.45.45-.98.57-1.58.13-.6.2-1.24.2-1.93v-.32c0-.66-.07-1.3-.2-1.88a4.94 4.94 0 0 0-.59-1.58 2.94 2.94 0 0 0-1.05-1.09 3 3 0 0 0-1.58-.4 3 3 0 0 0-1.57.4 3.1 3.1 0 0 0-1.05 1.1c-.27.45-.46.98-.58 1.57a9.29 9.29 0 0 0-.18 1.88ZM83.64 23.94c.53 0 1.01-.1 1.42-.3.42-.22.74-.51.98-.89s.37-.83.38-1.35h4.11a5.47 5.47 0 0 1-.93 3.08c-.6.9-1.42 1.6-2.44 2.11-1.02.51-2.17.76-3.43.76a8.13 8.13 0 0 1-3.34-.63 6.52 6.52 0 0 1-2.35-1.77 7.72 7.72 0 0 1-1.42-2.64c-.31-1-.47-2.1-.47-3.25v-.44c0-1.16.16-2.24.47-3.24.32-1.02.79-1.9 1.42-2.65a6.44 6.44 0 0 1 2.35-1.77 7.98 7.98 0 0 1 3.3-.64c1.35 0 2.53.26 3.55.77a5.77 5.77 0 0 1 2.4 2.22c.58.95.88 2.08.89 3.39h-4.11a3.42 3.42 0 0 0-.35-1.5 2.63 2.63 0 0 0-2.44-1.47c-.64 0-1.17.14-1.57.42-.4.26-.72.62-.94 1.09-.22.45-.38.98-.47 1.56a13.1 13.1 0 0 0-.12 1.82v.44c0 .64.04 1.25.12 1.84.08.59.23 1.11.45 1.56.24.46.55.82.96 1.08.4.27.93.4 1.58.4ZM73.24 3.73v23.32h-4.39V3.73h4.39ZM66.24 23.5v3.55H54.47V23.5h11.77ZM55.96 4.95v22.1h-4.55V4.95h4.55Zm8.75 9v3.46H54.47v-3.46h10.24Zm1.52-9V8.5H54.46V4.95h11.75Z" fill="#fff"/><path fill-rule="evenodd" clip-rule="evenodd" d="M14.61 16.79V3.42A3.42 3.42 0 0 1 18.03 0H34.2a3.42 3.42 0 0 1 3.42 3.42v13.37a3.42 3.42 0 0 1-3.42 3.42H18.03a3.42 3.42 0 0 1-3.42-3.42Zm2.49 0c0 .51.42.93.93.93H34.2c.52 0 .93-.42.93-.93V3.42a.93.93 0 0 0-.93-.93H18.03a.93.93 0 0 0-.93.93v13.37Z" fill="#fff"/><path fill-rule="evenodd" clip-rule="evenodd" d="M0 28.91V15.55a3.42 3.42 0 0 1 3.42-3.42h16.17A3.42 3.42 0 0 1 23 15.55V28.9a3.42 3.42 0 0 1-3.42 3.42H3.42A3.42 3.42 0 0 1 0 28.91Zm2.49 0c0 .52.41.94.93.94h16.17c.51 0 .93-.42.93-.94V15.55a.93.93 0 0 0-.93-.94H3.42a.93.93 0 0 0-.93.94V28.9Z" fill="#fff"/><path fill-rule="evenodd" clip-rule="evenodd" d="M24.87 28.91V25.5a3.42 3.42 0 0 1 3.42-3.42h5.91a3.42 3.42 0 0 1 3.42 3.42v3.42a3.42 3.42 0 0 1-3.42 3.42h-5.9a3.42 3.42 0 0 1-3.43-3.42Zm2.49 0c0 .52.42.94.93.94h5.91c.52 0 .93-.42.93-.94V25.5a.93.93 0 0 0-.93-.93h-5.9a.93.93 0 0 0-.94.93v3.42Z" fill="#63D23A"/></svg>