<svg width="18" height="17" fill="none" xmlns="http://www.w3.org/2000/svg"><path fill-rule="evenodd" clip-rule="evenodd" d="M6.61 0h5.187c4.734 0 5.854 1.12 5.854 5.855v5.186c0 4.734-1.12 5.855-5.854 5.855H6.61c-4.733 0-5.854-1.121-5.854-5.855V5.855C.756 1.12 1.876 0 6.61 0Zm7.977 5.819c.084-.263 0-.453-.37-.453H12.99c-.31 0-.453.166-.536.345 0 0-.632 1.527-1.514 2.516-.287.286-.418.382-.573.382-.083 0-.19-.096-.19-.358V5.807c0-.31-.096-.453-.358-.453H7.886c-.19 0-.31.143-.31.286 0 .298.441.37.489 1.204v1.813c0 .393-.072.464-.227.464-.417 0-1.43-1.538-2.038-3.29-.12-.346-.24-.477-.55-.477H4.01c-.357 0-.416.167-.416.345 0 .322.417 1.944 1.943 4.09 1.014 1.467 2.456 2.254 3.756 2.254.787 0 .883-.179.883-.477v-1.11c0-.357.071-.416.321-.416.18 0 .501.095 1.229.799.834.834.977 1.216 1.442 1.216h1.228c.358 0 .525-.18.43-.525-.108-.346-.513-.846-1.038-1.443-.286-.333-.715-.703-.846-.882-.18-.238-.132-.334 0-.548-.012 0 1.49-2.123 1.645-2.838Z" fill="#5B5B5B"/></svg>